<?xml version="1.0" encoding="UTF-8"?>
<svg width="30px" height="30px" viewBox="0 0 30 30" version="1.1" xmlns="http://www.w3.org/2000/svg" xmlns:xlink="http://www.w3.org/1999/xlink">
    <title>Crops/Icon Button/save_d</title>
    <g id="Crops/Icon-Button/save_d" stroke="none" stroke-width="1" fill="none" fill-rule="evenodd">
        <rect id="Rectangle" stroke-opacity="0.4" stroke="#414141" fill-opacity="0.05" fill="#FFFFFF" x="0.5" y="0.5" width="29" height="29"></rect>
        <path d="M22.875,22.875 L19.78125,22.875 L19.78125,16.9400625 C19.78125,16.629 19.52925,16.3775625 19.21875,16.3775625 L10.78125,16.3775625 C10.47075,16.3775625 10.21875,16.629 10.21875,16.9400625 L10.21875,22.875 L7.125,22.875 L7.125,7.125 L10.21875,7.125 L10.21875,11.1046875 C10.21875,11.41575 10.47075,11.6671875 10.78125,11.6671875 L19.21875,11.6671875 C19.52925,11.6671875 19.78125,11.41575 19.78125,11.1046875 L19.78125,7.125 L20.308875,7.125 L22.875,10.066875 L22.875,22.875 Z M11.34375,22.875 L18.65625,22.875 L18.65625,17.5025625 L11.34375,17.5025625 L11.34375,22.875 Z M13.7169375,10.5421875 L18.65625,10.5421875 L18.65625,7.17225 L13.7169375,7.17225 L13.7169375,10.5421875 Z M23.8610625,9.486375 L20.988375,6.1929375 C20.8820625,6.0703125 20.727375,6 20.5648125,6 L6.5625,6 C6.252,6 6,6.2514375 6,6.5625 L6,23.4375 C6,23.7485625 6.252,24 6.5625,24 L10.78125,24 L19.21875,24 L23.4375,24 C23.748,24 24,23.7485625 24,23.4375 L24,9.8559375 C24,9.720375 23.9510625,9.58875 23.8610625,9.486375 L23.8610625,9.486375 Z" id="Fill-1" fill="#FFFFFF" opacity="0.25"></path>
    </g>
</svg>